<svg width="72" height="75" viewBox="0 0 72 75" fill="none" xmlns="http://www.w3.org/2000/svg">
<path d="M62.5072 13.4484C63.1665 14.1352 63.1642 15.3258 62.5005 16.3149L52.3665 31.4297C51.4665 32.7774 49.752 33.1664 48.852 32.2313L46.7392 30.0281L44.3137 32.5547L40.7925 28.8891L43.218 26.3625L41.1052 24.1594C40.2052 23.2219 40.5788 21.4383 41.8725 20.4985L56.385 9.9422C57.3322 9.25314 58.4775 9.25079 59.1368 9.93751L62.5072 13.4484ZM25.974 40.6594L33.0165 47.9953L16.8165 64.8703C16.3485 65.3555 15.715 65.6279 15.0547 65.6279C14.3945 65.6279 13.761 65.3555 13.293 64.8703L9.774 61.2C9.30891 60.7126 9.04786 60.0533 9.04786 59.366C9.04786 58.6788 9.30891 58.0195 9.774 57.532L25.974 40.6594ZM62.226 57.8391C62.6904 58.3264 62.951 58.9852 62.951 59.6719C62.951 60.3585 62.6904 61.0174 62.226 61.5047L59.0467 64.8188C58.5787 65.3039 57.9453 65.5763 57.285 65.5763C56.6247 65.5763 55.9913 65.3039 55.5232 64.8188L25.1572 33.1875C21.5415 34.6711 17.3025 34.2211 14.0738 31.8422C12.1757 30.4666 10.7061 28.542 9.8464 26.3061C8.9867 24.0703 8.77458 21.621 9.23625 19.261C9.42075 18.3188 10.5705 17.9883 11.223 18.6703L15.8107 23.4516C16.7332 24.4125 18.2407 24.4125 19.161 23.4516L22.5135 19.9594C23.436 19.0008 23.436 17.4305 22.5135 16.4695L17.9325 11.6953C17.271 11.0063 17.6062 9.80392 18.522 9.61407C20.4319 9.21289 22.4074 9.31004 24.2725 9.89685C26.1376 10.4837 27.8344 11.5419 29.2118 12.9774C30.8387 14.6747 31.955 16.8296 32.4237 19.178C32.8925 21.5264 32.6935 23.9662 31.851 26.1985L62.226 57.8391Z" fill="#BDAD87"/>
</svg>
