<svg width="38" height="38" viewBox="0 0 38 38" fill="none" xmlns="http://www.w3.org/2000/svg">
<path d="M7.6 32.9333V34.2H10.1333V32.9333H7.6ZM27.8667 32.9333V34.2H30.4V32.9333H27.8667ZM10.1333 32.9333V31.6667H7.6V32.9333H10.1333ZM16.4667 25.3333H21.5333V22.8H16.4667V25.3333ZM27.8667 31.6667V32.9333H30.4V31.6667H27.8667ZM21.5333 25.3333C23.213 25.3333 24.8239 26.0006 26.0117 27.1883C27.1994 28.3761 27.8667 29.987 27.8667 31.6667H30.4C30.4 29.3151 29.4658 27.0598 27.803 25.397C26.1402 23.7342 23.8849 22.8 21.5333 22.8V25.3333ZM10.1333 31.6667C10.1333 29.987 10.8006 28.3761 11.9883 27.1883C13.1761 26.0006 14.787 25.3333 16.4667 25.3333V22.8C14.1151 22.8 11.8598 23.7342 10.197 25.397C8.53417 27.0598 7.6 29.3151 7.6 31.6667H10.1333ZM19 7.6C17.3203 7.6 15.7094 8.26726 14.5217 9.45499C13.3339 10.6427 12.6667 12.2536 12.6667 13.9333H15.2C15.2 12.9255 15.6004 11.959 16.313 11.2463C17.0256 10.5337 17.9922 10.1333 19 10.1333V7.6ZM25.3333 13.9333C25.3333 12.2536 24.6661 10.6427 23.4783 9.45499C22.2906 8.26726 20.6797 7.6 19 7.6V10.1333C20.0078 10.1333 20.9744 10.5337 21.687 11.2463C22.3996 11.959 22.8 12.9255 22.8 13.9333H25.3333ZM19 20.2667C20.6797 20.2667 22.2906 19.5994 23.4783 18.4117C24.6661 17.2239 25.3333 15.613 25.3333 13.9333H22.8C22.8 14.9412 22.3996 15.9077 21.687 16.6203C20.9744 17.333 20.0078 17.7333 19 17.7333V20.2667ZM19 17.7333C17.9922 17.7333 17.0256 17.333 16.313 16.6203C15.6004 15.9077 15.2 14.9412 15.2 13.9333H12.6667C12.6667 15.613 13.3339 17.2239 14.5217 18.4117C15.7094 19.5994 17.3203 20.2667 19 20.2667V17.7333ZM19 35.4667C14.6328 35.4667 10.4444 33.7318 7.35631 30.6437C4.26821 27.5556 2.53333 23.3672 2.53333 19H0C0 24.0391 2.00178 28.8718 5.56497 32.435C9.12816 35.9982 13.9609 38 19 38V35.4667ZM35.4667 19C35.4667 21.1624 35.0407 23.3037 34.2132 25.3015C33.3857 27.2993 32.1728 29.1146 30.6437 30.6437C29.1146 32.1728 27.2993 33.3857 25.3015 34.2132C23.3037 35.0407 21.1624 35.4667 19 35.4667V38C24.0391 38 28.8718 35.9982 32.435 32.435C35.9982 28.8718 38 24.0391 38 19H35.4667ZM19 2.53333C21.1624 2.53333 23.3037 2.95926 25.3015 3.78678C27.2993 4.61431 29.1146 5.82724 30.6437 7.35631C32.1728 8.88538 33.3857 10.7007 34.2132 12.6985C35.0407 14.6963 35.4667 16.8376 35.4667 19H38C38 13.9609 35.9982 9.12816 32.435 5.56497C28.8718 2.00178 24.0391 0 19 0V2.53333ZM19 0C13.9609 0 9.12816 2.00178 5.56497 5.56497C2.00178 9.12816 0 13.9609 0 19H2.53333C2.53333 14.6328 4.26821 10.4444 7.35631 7.35631C10.4444 4.26821 14.6328 2.53333 19 2.53333V0Z" fill="#BDAD87"/>
</svg>
